<svg xmlns="http://www.w3.org/2000/svg" viewBox="0 0 1200 400" preserveAspectRatio="xMidYMid meet" font-family="-apple-system, system-ui, sans-serif">
  <defs>
    <style>
      .box { fill: #1a1a1a; stroke: #0a84ff; stroke-width: 2; }
      .label { fill: #e0e0e0; font-size: 13px; text-anchor: middle; }
      .sub { fill: #888; font-size: 10px; text-anchor: middle; }
      .arrow { stroke: #666; stroke-width: 2; fill: none; marker-end: url(#arrowhead); }
      @media (max-width: 600px) {
        .label { font-size: 11px; }
        .sub { font-size: 8px; }
      }
    </style>
    <marker id="arrowhead" markerWidth="10" markerHeight="7" refX="10" refY="3.5" orient="auto">
      <polygon points="0 0, 10 3.5, 0 7" fill="#666"/>
    </marker>
  </defs>

  <rect width="1200" height="400" fill="#111"/>

  <!-- Input -->
  <rect x="20" y="130" width="90" height="60" rx="6" class="box"/>
  <text x="65" y="153" class="label">Input</text>
  <text x="65" y="168" class="sub">Text</text>

  <!-- Arrow -->
  <line x1="110" y1="160" x2="135" y2="160" class="arrow"/>

  <!-- Tokenizer -->
  <rect x="135" y="130" width="90" height="60" rx="6" class="box"/>
  <text x="180" y="153" class="label">Tokenizer</text>
  <text x="180" y="168" class="sub">91 chars</text>

  <!-- Arrow -->
  <line x1="225" y1="160" x2="250" y2="160" class="arrow"/>

  <!-- Embedding -->
  <rect x="250" y="130" width="90" height="60" rx="6" class="box"/>
  <text x="295" y="153" class="label">Embedding</text>
  <text x="295" y="168" class="sub">128-dim</text>

  <!-- Arrow -->
  <line x1="340" y1="160" x2="365" y2="160" class="arrow"/>

  <!-- Block 1 -->
  <rect x="365" y="130" width="85" height="60" rx="6" class="box"/>
  <text x="407" y="153" class="label">Block 1</text>
  <text x="407" y="168" class="sub">Attn+FFN</text>

  <!-- Arrow -->
  <line x1="450" y1="160" x2="475" y2="160" class="arrow"/>

  <!-- Block 2 -->
  <rect x="475" y="130" width="85" height="60" rx="6" class="box"/>
  <text x="517" y="153" class="label">Block 2</text>
  <text x="517" y="168" class="sub">Attn+FFN</text>

  <!-- Arrow -->
  <line x1="560" y1="160" x2="585" y2="160" class="arrow"/>

  <!-- Block 3 -->
  <rect x="585" y="130" width="85" height="60" rx="6" class="box"/>
  <text x="627" y="153" class="label">Block 3</text>
  <text x="627" y="168" class="sub">Attn+FFN</text>

  <!-- Arrow -->
  <line x1="670" y1="160" x2="695" y2="160" class="arrow"/>

  <!-- Output -->
  <rect x="695" y="130" width="90" height="60" rx="6" class="box"/>
  <text x="740" y="153" class="label">Output</text>
  <text x="740" y="168" class="sub">Logits</text>

  <!-- Arrow -->
  <line x1="785" y1="160" x2="810" y2="160" class="arrow"/>

  <!-- Next Token -->
  <rect x="810" y="130" width="90" height="60" rx="6" class="box"/>
  <text x="855" y="153" class="label">Next Token</text>
  <text x="855" y="168" class="sub">Prediction</text>

  <!-- Specs at bottom -->
  <text x="20" y="250" class="label" text-anchor="start" font-size="13" font-weight="bold" fill="#0a84ff">Model: 445K params | 3 layers | 4 heads | 256 FF</text>
  <text x="20" y="275" class="sub" text-anchor="start" font-size="11" fill="#888">Training: Math (50%) + Wikipedia + Current Events (50%)</text>
  <text x="20" y="295" class="sub" text-anchor="start" font-size="11" fill="#888">Loss: 0.13-0.19 | Vocab: 91 characters | Tokenizer: Char-level</text>
  <text x="20" y="315" class="sub" text-anchor="start" font-size="11" fill="#888">Evaluation: Q&amp;A accuracy (math, facts, identity, current events)</text>
</svg>
