<svg xmlns="http://www.w3.org/2000/svg" viewBox="0 0 800 580" font-family="-apple-system, BlinkMacSystemFont, sans-serif">
  <defs>
    <linearGradient id="blue" x1="0%" y1="0%" x2="100%" y2="100%">
      <stop offset="0%" style="stop-color:#0071e3;stop-opacity:0.15"/>
      <stop offset="100%" style="stop-color:#0071e3;stop-opacity:0.05"/>
    </linearGradient>
    <linearGradient id="orange" x1="0%" y1="0%" x2="100%" y2="100%">
      <stop offset="0%" style="stop-color:#ff9500;stop-opacity:0.15"/>
      <stop offset="100%" style="stop-color:#ff9500;stop-opacity:0.05"/>
    </linearGradient>
  </defs>

  <rect width="800" height="580" rx="18" fill="#f5f5f7"/>

  <text x="400" y="36" text-anchor="middle" font-size="18" font-weight="600" fill="#1d1d1f">core architecture</text>

  <!-- Input -->
  <rect x="30" y="60" width="120" height="50" rx="12" fill="url(#blue)" stroke="#0071e3" stroke-width="1.5"/>
  <text x="90" y="82" text-anchor="middle" font-size="11" fill="#86868b">INPUT</text>
  <text x="90" y="98" text-anchor="middle" font-size="13" font-weight="500" fill="#1d1d1f">Text</text>

  <line x1="150" y1="85" x2="180" y2="85" stroke="#86868b" stroke-width="1.5"/>

  <!-- Tokenizer -->
  <rect x="180" y="60" width="120" height="50" rx="12" fill="url(#blue)" stroke="#0071e3" stroke-width="1.5"/>
  <text x="240" y="82" text-anchor="middle" font-size="11" fill="#86868b">TOKENIZER</text>
  <text x="240" y="98" text-anchor="middle" font-size="13" font-weight="500" fill="#1d1d1f">Char-level</text>

  <line x1="300" y1="85" x2="330" y2="85" stroke="#86868b" stroke-width="1.5"/>

  <!-- Embedding -->
  <rect x="330" y="60" width="140" height="50" rx="12" fill="url(#blue)" stroke="#0071e3" stroke-width="1.5"/>
  <text x="400" y="82" text-anchor="middle" font-size="11" fill="#86868b">EMBEDDING</text>
  <text x="400" y="98" text-anchor="middle" font-size="13" font-weight="500" fill="#1d1d1f">Token + Position</text>

  <line x1="400" y1="110" x2="400" y2="140" stroke="#86868b" stroke-width="1.5"/>

  <!-- Transformer Block -->
  <rect x="100" y="140" width="600" height="200" rx="16" fill="none" stroke="#0071e3" stroke-width="2" stroke-dasharray="6,3"/>
  <text x="120" y="162" font-size="12" font-weight="600" fill="#0071e3">x4 TRANSFORMER BLOCKS</text>

  <!-- Multi-Head Attention -->
  <rect x="130" y="180" width="160" height="60" rx="10" fill="url(#blue)" stroke="#0071e3" stroke-width="1.5"/>
  <text x="210" y="202" text-anchor="middle" font-size="11" fill="#86868b">MULTI-HEAD ATTENTION</text>
  <text x="210" y="222" text-anchor="middle" font-size="13" font-weight="500" fill="#1d1d1f">4 heads, 128d</text>

  <line x1="290" y1="210" x2="320" y2="210" stroke="#86868b" stroke-width="1.5"/>

  <!-- Add & Norm 1 -->
  <rect x="320" y="185" width="80" height="50" rx="10" fill="rgba(48,209,88,0.1)" stroke="#30d158" stroke-width="1.5"/>
  <text x="360" y="207" text-anchor="middle" font-size="11" fill="#1d1d1f">Add &amp;</text>
  <text x="360" y="222" text-anchor="middle" font-size="11" fill="#1d1d1f">LayerNorm</text>

  <line x1="400" y1="210" x2="430" y2="210" stroke="#86868b" stroke-width="1.5"/>

  <!-- FFN -->
  <rect x="430" y="180" width="120" height="60" rx="10" fill="url(#blue)" stroke="#0071e3" stroke-width="1.5"/>
  <text x="490" y="202" text-anchor="middle" font-size="11" fill="#86868b">FEED-FORWARD</text>
  <text x="490" y="222" text-anchor="middle" font-size="13" font-weight="500" fill="#1d1d1f">128-256-128</text>

  <line x1="550" y1="210" x2="580" y2="210" stroke="#86868b" stroke-width="1.5"/>

  <!-- Add & Norm 2 -->
  <rect x="580" y="185" width="80" height="50" rx="10" fill="rgba(48,209,88,0.1)" stroke="#30d158" stroke-width="1.5"/>
  <text x="620" y="207" text-anchor="middle" font-size="11" fill="#1d1d1f">Add &amp;</text>
  <text x="620" y="222" text-anchor="middle" font-size="11" fill="#1d1d1f">LayerNorm</text>

  <!-- Residual -->
  <path d="M210,180 L210,170 L620,170 L620,185" fill="none" stroke="#86868b" stroke-width="1" stroke-dasharray="4,2"/>
  <text x="415" y="166" text-anchor="middle" font-size="10" fill="#86868b">residual connections</text>

  <text x="400" y="320" text-anchor="middle" font-size="11" fill="#86868b">dropout (training only)</text>

  <line x1="400" y1="340" x2="400" y2="370" stroke="#86868b" stroke-width="1.5"/>

  <!-- Output head -->
  <rect x="300" y="370" width="200" height="50" rx="12" fill="url(#blue)" stroke="#0071e3" stroke-width="1.5"/>
  <text x="400" y="392" text-anchor="middle" font-size="11" fill="#86868b">OUTPUT HEAD</text>
  <text x="400" y="408" text-anchor="middle" font-size="13" font-weight="500" fill="#1d1d1f">Linear - Softmax</text>

  <line x1="400" y1="420" x2="400" y2="445" stroke="#86868b" stroke-width="1.5"/>

  <!-- Sampling -->
  <rect x="300" y="445" width="200" height="40" rx="10" fill="rgba(48,209,88,0.1)" stroke="#30d158" stroke-width="1.5"/>
  <text x="400" y="470" text-anchor="middle" font-size="13" font-weight="500" fill="#1d1d1f">top-k / top-p / temp</text>

  <!-- Inference paths: Python vs C -->
  <rect x="30" y="500" width="170" height="60" rx="12" fill="url(#blue)" stroke="#0071e3" stroke-width="1.5"/>
  <text x="115" y="522" text-anchor="middle" font-size="11" font-weight="600" fill="#0071e3">PYTHON PATH</text>
  <text x="115" y="540" text-anchor="middle" font-size="11" fill="#1d1d1f">PyTorch + Flask UI</text>
  <text x="115" y="554" text-anchor="middle" font-size="10" fill="#86868b">train / eval / web</text>

  <rect x="220" y="500" width="170" height="60" rx="12" fill="url(#orange)" stroke="#ff9500" stroke-width="1.5"/>
  <text x="305" y="522" text-anchor="middle" font-size="11" font-weight="600" fill="#ff9500">C PATH</text>
  <text x="305" y="540" text-anchor="middle" font-size="11" fill="#1d1d1f">mmap + C99 engine</text>
  <text x="305" y="554" text-anchor="middle" font-size="10" fill="#86868b">inference only, 0 deps</text>

  <!-- Services sidebar -->
  <rect x="600" y="370" width="170" height="110" rx="12" fill="rgba(0,0,0,0.03)" stroke="#d2d2d7" stroke-width="1"/>
  <text x="685" y="392" text-anchor="middle" font-size="11" font-weight="600" fill="#86868b">SERVICES</text>
  <text x="685" y="414" text-anchor="middle" font-size="12" fill="#1d1d1f">Flask UI :5001</text>
  <text x="685" y="434" text-anchor="middle" font-size="12" fill="#1d1d1f">Train daemon</text>
  <text x="685" y="454" text-anchor="middle" font-size="12" fill="#1d1d1f">Eval harness</text>
  <text x="685" y="474" text-anchor="middle" font-size="12" fill="#1d1d1f">iMessage alerts</text>

  <!-- Binary format -->
  <rect x="420" y="500" width="350" height="60" rx="12" fill="rgba(0,0,0,0.03)" stroke="#d2d2d7" stroke-width="1"/>
  <text x="595" y="522" text-anchor="middle" font-size="11" font-weight="600" fill="#86868b">WEIGHT FORMAT</text>
  <text x="595" y="540" text-anchor="middle" font-size="11" fill="#1d1d1f">core.bin: CORE magic | config | vocab | float32 tensors</text>
  <text x="595" y="554" text-anchor="middle" font-size="10" fill="#86868b">export_weights.py: .pt -> .bin</text>

  <text x="90" y="575" font-size="11" fill="#86868b">v2.0.0 | 230K params | 102 vocab | AdamW + cosine LR</text>
</svg>
